<?xml version="1.0" encoding="utf-8"?>
<!-- Generator: Adobe Illustrator 24.1.2, SVG Export Plug-In . SVG Version: 6.00 Build 0)  -->
<svg version="1.1" id="Layer_1" xmlns="http://www.w3.org/2000/svg" xmlns:xlink="http://www.w3.org/1999/xlink" x="0px" y="0px"
	 viewBox="0 0 188.2 215.9" style="enable-background:new 0 0 188.2 215.9;" xml:space="preserve">
<style type="text/css">
	.st0{fill:#357872;}
	.st1{fill:none;stroke:#357872;stroke-width:0.7835;stroke-miterlimit:10;}
	.st2{fill:#C03E54;}
	.st3{fill:none;stroke:#C03E54;stroke-width:0.7835;stroke-miterlimit:10;}
</style>
<g id="Layer_2_1_">
	<g id="Layer_1-2">
		<path class="st0" d="M167.3,47V26.9c-0.2-1.8-1.7-3.1-3.5-3.1h-0.1c-11.7,1.7-20.7,11.4-21.4,23.2v59.8
			c-21.6-9.9-47-0.4-56.9,21.1s-0.4,47,21.1,56.9c1.6,0.7,3.3,1.4,5,1.9c1.7,0.5,3.4,1,5.1,1.3l0,0l0.8,0.1l0,0h0.1
			c1.3,0.2,2.5,0.4,3.8,0.5l0,0c1.1,0.1,2.1,0.1,3.2,0.1c3.9,0,7.7-0.5,11.5-1.6c0.8-0.2,1.7-0.5,2.5-0.8c0.8-0.3,1.5-0.5,2.3-0.9
			c8.2-3.3,15.1-9.1,19.9-16.5c4.2-6.5,6.5-14,6.8-21.7c0-0.5,0-1,0-1.5L167.3,47L167.3,47z M142.2,147.1c-0.1,1.8-0.5,3.5-1.2,5.1
			c-1,2.6-2.6,4.9-4.7,6.8l-0.6,0.5c-0.4,0.4-0.9,0.7-1.3,1c-2.6,1.8-5.6,2.9-8.8,3.1c-9.8,0.7-18.4-6.7-19.1-16.5
			c-0.3-3.8,0.7-7.5,2.7-10.7l0,0c0.4-0.6,0.7-1.1,1.2-1.6l0,0l0,0l0,0l0,0c0.4-0.5,0.8-0.9,1.2-1.4l0,0c0.3-0.3,0.6-0.5,0.9-0.8
			c3.3-2.9,7.5-4.5,11.8-4.5c9.4,0,17.1,7.3,17.8,16.6C142.3,145.4,142.3,146.2,142.2,147.1L142.2,147.1z"/>
		<path class="st1" d="M167.3,47V26.9c-0.2-1.8-1.7-3.1-3.5-3.1h-0.1c-11.7,1.7-20.7,11.4-21.4,23.2v59.8
			c-21.6-9.9-47-0.4-56.9,21.1s-0.4,47,21.1,56.9c1.6,0.7,3.3,1.4,5,1.9c1.7,0.5,3.4,1,5.1,1.3l0,0l0.8,0.1l0,0h0.1
			c1.3,0.2,2.5,0.4,3.8,0.5l0,0c1.1,0.1,2.1,0.1,3.2,0.1c3.9,0,7.7-0.5,11.5-1.6c0.8-0.2,1.7-0.5,2.5-0.8c0.8-0.3,1.5-0.5,2.3-0.9
			c8.2-3.3,15.1-9.1,19.9-16.5c4.2-6.5,6.5-14,6.8-21.7c0-0.5,0-1,0-1.5L167.3,47L167.3,47z"/>
		<path class="st1" d="M142.3,147.1c-0.1,1.8-0.5,3.5-1.2,5.1c-1,2.6-2.6,4.9-4.7,6.8l-0.6,0.5c-0.4,0.4-0.9,0.7-1.3,1
			c-2.6,1.8-5.6,2.9-8.8,3.1c-9.8,0.7-18.4-6.7-19.1-16.5c-0.3-3.8,0.7-7.5,2.7-10.7l0,0c0.4-0.6,0.7-1.1,1.2-1.6l0,0l0,0l0,0l0,0
			c0.4-0.5,0.8-0.9,1.2-1.4l0,0c0.3-0.3,0.6-0.5,0.9-0.8c3.3-2.9,7.5-4.5,11.8-4.5c9.4,0,17.1,7.3,17.8,16.6
			C142.3,145.4,142.3,146.2,142.3,147.1z"/>
		<path class="st0" d="M142.3,106.7v37.8c-0.7-9.3-8.4-16.6-17.8-16.6c-3.3,0-6.5,0.9-9.3,2.6l-14.9-20.2
			C112.7,101.8,128.7,100.4,142.3,106.7L142.3,106.7z"/>
		<path class="st1" d="M142.3,106.7v37.8c-0.7-9.3-8.4-16.6-17.8-16.6c-3.3,0-6.5,0.9-9.3,2.6l-14.9-20.2
			C112.7,101.8,128.7,100.4,142.3,106.7L142.3,106.7z"/>
		<path class="st0" d="M136,187.1c-3.7,1-7.6,1.6-11.5,1.6c-1.1,0-2.1,0-3.2-0.1l0,0c-1.3-0.1-2.6-0.2-3.8-0.5h-0.1
			c0.1,0-4.1-0.2-9.7-5.8c-26.6-25.9,1.7-46.4,2.9-47.7c-0.4,0.5-0.8,1.1-1.2,1.6l0,0c-5.2,8.4-2.7,19.4,5.7,24.6
			c6,3.7,13.7,3.6,19.5-0.4L136,187.1z"/>
		<path class="st1" d="M136,187.1c-3.7,1-7.6,1.6-11.5,1.6c-1.1,0-2.1,0-3.2-0.1l0,0c-1.3-0.1-2.6-0.2-3.8-0.5h-0.1
			c0.1,0-4.1-0.2-9.7-5.8c-26.6-25.9,1.7-46.4,2.9-47.7c-0.4,0.5-0.8,1.1-1.2,1.6l0,0c-5.2,8.4-2.7,19.4,5.7,24.6
			c6,3.7,13.7,3.6,19.5-0.4L136,187.1z"/>
		<path class="st0" d="M167.4,47v19.6l-25.1,1V47c0.8-11.8,9.7-21.5,21.4-23.2h0.1c1.8,0,3.3,1.4,3.5,3.1L167.4,47L167.4,47z"/>
		<path class="st1" d="M167.4,47v19.6l-25.1,1V47c0.8-11.8,9.7-21.5,21.4-23.2h0.1c1.8,0,3.3,1.4,3.5,3.1L167.4,47L167.4,47z"/>
		<path class="st0" d="M20.8,50.4v98.8c0,0.5,0,1,0,1.5c0.3,7.7,2.6,15.2,6.8,21.7c4.8,7.4,11.7,13.2,19.9,16.6
			c0.8,0.3,1.5,0.6,2.3,0.9s1.7,0.5,2.5,0.8c3.7,1,7.6,1.6,11.5,1.6c1.1,0,2.1,0,3.2-0.1l0,0c1.3-0.1,2.6-0.3,3.8-0.5h0.1l0.8-0.1
			l0,0c1.7-0.3,3.5-0.7,5.1-1.3c22.6-7.2,35.1-31.3,27.9-53.9c-2.9-9.1-8.8-17.1-16.7-22.5c-12.4-8.5-28.4-9.9-42.1-3.6V50.4
			c-0.8-11.8-9.7-21.5-21.5-23.2h-0.1c-1.8,0-3.3,1.4-3.5,3.1L20.8,50.4L20.8,50.4z M45.9,147.9c0.7-9.8,9.2-17.2,19-16.6
			c2.9,0.2,5.6,1.1,8.1,2.6c0.9,0.5,1.8,1.2,2.5,1.9c0.3,0.3,0.6,0.5,0.9,0.8l0,0c0.4,0.4,0.8,0.9,1.2,1.4l0,0l0,0l0,0l0,0
			c0.4,0.5,0.8,1.1,1.2,1.6l0,0c5.2,8.4,2.7,19.4-5.7,24.6c-3.2,2-7,2.9-10.7,2.7c-3.2-0.2-6.2-1.3-8.8-3.1c-0.4-0.3-0.9-0.6-1.3-1
			c-0.2-0.2-0.4-0.3-0.6-0.5c-2.1-1.9-3.7-4.2-4.7-6.8c-0.6-1.6-1-3.4-1.2-5.1C45.8,149.6,45.8,148.8,45.9,147.9z"/>
		<path class="st1" d="M20.8,50.4v98.8c0,0.5,0,1,0,1.5c0.3,7.7,2.6,15.2,6.8,21.7c4.8,7.4,11.7,13.2,19.9,16.6
			c0.8,0.3,1.5,0.6,2.3,0.9s1.7,0.5,2.5,0.8c3.7,1,7.6,1.6,11.5,1.6c1.1,0,2.1,0,3.2-0.1l0,0c1.3-0.1,2.6-0.3,3.8-0.5h0.1l0.8-0.1
			l0,0c1.7-0.3,3.5-0.7,5.1-1.3c22.6-7.2,35.1-31.3,27.9-53.9c-2.9-9.1-8.8-17.1-16.7-22.5c-12.4-8.5-28.4-9.9-42.1-3.6V50.4
			c-0.8-11.8-9.7-21.5-21.5-23.2h-0.1c-1.8,0-3.3,1.4-3.5,3.1L20.8,50.4L20.8,50.4z"/>
		<path class="st1" d="M45.9,147.9c0.7-9.8,9.2-17.2,19-16.6c2.9,0.2,5.6,1.1,8.1,2.6c0.9,0.5,1.8,1.2,2.5,1.9
			c0.3,0.3,0.6,0.5,0.9,0.8l0,0c0.4,0.4,0.8,0.9,1.2,1.4l0,0l0,0l0,0l0,0c0.4,0.5,0.8,1.1,1.2,1.6l0,0c5.2,8.4,2.7,19.4-5.7,24.6
			c-3.2,2-7,2.9-10.7,2.7c-3.2-0.2-6.2-1.3-8.8-3.1c-0.4-0.3-0.9-0.6-1.3-1c-0.2-0.2-0.4-0.3-0.6-0.5c-2.1-1.9-3.7-4.2-4.7-6.8
			c-0.6-1.6-1-3.4-1.2-5.1C45.8,149.6,45.8,148.8,45.9,147.9z"/>
		<path class="st0" d="M45.8,110.1v37.8c0.7-9.8,9.2-17.2,19-16.6c2.9,0.2,5.6,1.1,8.1,2.6l14.9-20.2
			C75.4,105.2,59.5,103.8,45.8,110.1L45.8,110.1z"/>
		<path class="st1" d="M45.8,110.1v37.8c0.7-9.8,9.2-17.2,19-16.6c2.9,0.2,5.6,1.1,8.1,2.6l14.9-20.2
			C75.4,105.2,59.5,103.8,45.8,110.1L45.8,110.1z"/>
		<path class="st0" d="M52.2,190.5c3.7,1,7.6,1.6,11.5,1.6c1.1,0,2.1,0,3.2-0.1l0,0c1.3-0.1,2.6-0.3,3.8-0.5h0.1
			c-0.1,0,4.1-0.2,9.7-5.8c26.6-25.9-1.7-46.4-2.9-47.7c0.4,0.5,0.8,1.1,1.2,1.6l0,0c5.2,8.4,2.7,19.4-5.7,24.6
			c-3.2,2-7,2.9-10.7,2.7c-3.2-0.2-6.2-1.3-8.8-3.1L52.2,190.5z"/>
		<path class="st1" d="M52.2,190.5c3.7,1,7.6,1.6,11.5,1.6c1.1,0,2.1,0,3.2-0.1l0,0c1.3-0.1,2.6-0.3,3.8-0.5h0.1
			c-0.1,0,4.1-0.2,9.7-5.8c26.6-25.9-1.7-46.4-2.9-47.7c0.4,0.5,0.8,1.1,1.2,1.6l0,0c5.2,8.4,2.7,19.4-5.7,24.6
			c-3.2,2-7,2.9-10.7,2.7c-3.2-0.2-6.2-1.3-8.8-3.1L52.2,190.5z"/>
		<path class="st0" d="M20.8,50.4V70l25.1,1V50.4c-0.8-11.8-9.7-21.5-21.4-23.2h-0.1c-1.8,0-3.3,1.4-3.5,3.1L20.8,50.4L20.8,50.4z"
			/>
		<path class="st1" d="M20.8,50.4V70l25.1,1V50.4c-0.8-11.8-9.7-21.5-21.4-23.2h-0.1c-1.8,0-3.3,1.4-3.5,3.1L20.8,50.4L20.8,50.4z"
			/>
		<circle class="st2" cx="91.9" cy="101.8" r="6.8"/>
		<circle class="st3" cx="91.9" cy="101.8" r="6.8"/>
		<path class="st2" d="M86,82.7l5.9-45.3l5.9,45.3c0.4,3.2-1.8,6.2-5.1,6.7s-6.2-1.8-6.7-5.1l0,0C86,83.8,86,83.3,86,82.7z"/>
	</g>
</g>
</svg>
